<?xml version="1.0" encoding="UTF-8" standalone="no"?><!DOCTYPE svg PUBLIC "-//W3C//DTD SVG 1.1//EN" "http://www.w3.org/Graphics/SVG/1.1/DTD/svg11.dtd"><svg width="100%" height="100%" viewBox="0 0 62 21" version="1.1" xmlns="http://www.w3.org/2000/svg" xmlns:xlink="http://www.w3.org/1999/xlink" xml:space="preserve" xmlns:serif="http://www.serif.com/" style="fill-rule:evenodd;clip-rule:evenodd;stroke-linejoin:round;stroke-miterlimit:2;"><g id="dark-logo"><path d="M6.053,5.774l-2.914,2.094l-1.84,-2.561l7.387,-5.307l-2.633,5.774Z" style="fill:url(#_Linear1);"/><path d="M-0,19.048l8.686,-19.048l2.521,2.072l-4.871,10.682l-6.336,6.295Z" style="fill:url(#_Linear2);"/><path d="M-0,19.048l11.742,-11.665l-0.332,4.775l-8.78,8.723l-2.631,-1.832Z" style="fill:url(#_Linear3);"/><path d="M11.742,7.383l3.064,1.401l-0.506,7.287l-3.389,3.281l0.831,-11.97Z" style="fill:url(#_Linear4);"/><path d="M10.911,19.353l6.766,-6.551l2.194,2.266l-5.898,5.71l-3.062,-1.425Z" style="fill:url(#_Linear5);"/></g><g id="dark-hype"><path d="M28.263,7.919c0.973,0 1.754,0.322 2.342,0.966c0.588,0.644 0.882,1.529 0.882,2.654l0,4.959l-2.586,0l0,-4.609c0,-0.568 -0.147,-1.009 -0.441,-1.323c-0.294,-0.314 -0.69,-0.472 -1.186,-0.472c-0.497,0 -0.892,0.157 -1.186,0.472c-0.294,0.314 -0.441,0.755 -0.441,1.323l0,4.609l-2.601,0l0,-12.417l2.601,0l0,5.071c0.264,-0.375 0.624,-0.674 1.08,-0.897c0.456,-0.223 0.968,-0.335 1.536,-0.335Z" style="fill:#fff;fill-rule:nonzero;"/><path d="M40.69,8.244l-5.324,12.518l-2.799,0l1.947,-4.32l-3.453,-8.199l2.905,0l1.962,5.309l1.947,-5.309l2.814,0Z" style="fill:#fff;fill-rule:nonzero;"/><path d="M43.31,9.445c0.254,-0.395 0.603,-0.715 1.05,-0.958c0.446,-0.243 0.968,-0.365 1.567,-0.365c0.7,0 1.333,0.177 1.901,0.532c0.568,0.355 1.017,0.862 1.346,1.521c0.33,0.659 0.494,1.425 0.494,2.297c0,0.872 -0.165,1.64 -0.494,2.304c-0.33,0.664 -0.778,1.176 -1.346,1.536c-0.568,0.36 -1.202,0.54 -1.901,0.54c-0.588,0 -1.108,-0.122 -1.559,-0.365c-0.451,-0.243 -0.804,-0.558 -1.057,-0.943l0,5.232l-2.601,0l0,-12.534l2.601,0l0,1.202Zm3.711,3.027c0,-0.649 -0.18,-1.159 -0.54,-1.529c-0.36,-0.37 -0.804,-0.555 -1.331,-0.555c-0.517,0 -0.956,0.188 -1.316,0.563c-0.36,0.375 -0.54,0.887 -0.54,1.536c0,0.649 0.18,1.161 0.54,1.536c0.36,0.375 0.799,0.563 1.316,0.563c0.517,0 0.958,-0.19 1.323,-0.57c0.365,-0.38 0.548,-0.895 0.548,-1.544Z" style="fill:#fff;fill-rule:nonzero;"/><path d="M58.165,12.117c0,0.243 -0.015,0.497 -0.046,0.761l-5.887,0c0.041,0.527 0.21,0.93 0.51,1.209c0.299,0.279 0.667,0.418 1.103,0.418c0.649,0 1.1,-0.274 1.354,-0.821l2.768,0c-0.142,0.558 -0.398,1.06 -0.768,1.506c-0.37,0.446 -0.834,0.796 -1.392,1.05c-0.558,0.254 -1.181,0.38 -1.871,0.38c-0.832,0 -1.572,-0.177 -2.221,-0.532c-0.649,-0.355 -1.156,-0.862 -1.521,-1.521c-0.365,-0.659 -0.548,-1.43 -0.548,-2.312c0,-0.882 0.18,-1.653 0.54,-2.312c0.36,-0.659 0.864,-1.166 1.513,-1.521c0.649,-0.355 1.394,-0.532 2.236,-0.532c0.821,0 1.551,0.172 2.19,0.517c0.639,0.345 1.138,0.837 1.498,1.475c0.36,0.639 0.54,1.384 0.54,2.236Zm-2.662,-0.684c0,-0.446 -0.152,-0.801 -0.456,-1.065c-0.304,-0.264 -0.684,-0.395 -1.141,-0.395c-0.436,0 -0.804,0.127 -1.103,0.38c-0.299,0.254 -0.484,0.613 -0.555,1.08l3.255,0Z" style="fill:#fff;fill-rule:nonzero;"/><path d="M59.981,16.619c-0.456,0 -0.829,-0.134 -1.118,-0.403c-0.289,-0.269 -0.434,-0.601 -0.434,-0.996c0,-0.406 0.145,-0.745 0.434,-1.019c0.289,-0.274 0.662,-0.411 1.118,-0.411c0.446,0 0.814,0.137 1.103,0.411c0.289,0.274 0.434,0.613 0.434,1.019c0,0.395 -0.145,0.728 -0.434,0.996c-0.289,0.269 -0.657,0.403 -1.103,0.403Z" style="fill:url(#_Linear6);fill-rule:nonzero;"/></g><defs><linearGradient id="_Linear1" x1="0" y1="0" x2="1" y2="0" gradientUnits="userSpaceOnUse" gradientTransform="matrix(17.375452,-5.276185,5.276185,17.375452,1.298556,5.276185)"><stop offset="0" style="stop-color:#00a1ff;stop-opacity:1"/><stop offset="1" style="stop-color:#00121d;stop-opacity:1"/></linearGradient><linearGradient id="_Linear2" x1="0" y1="0" x2="1" y2="0" gradientUnits="userSpaceOnUse" gradientTransform="matrix(-8.067558,27.224389,-27.224389,-8.067558,8.685654,0)"><stop offset="0" style="stop-color:#00a1ff;stop-opacity:1"/><stop offset="1" style="stop-color:#00121d;stop-opacity:1"/></linearGradient><linearGradient id="_Linear3" x1="0" y1="0" x2="1" y2="0" gradientUnits="userSpaceOnUse" gradientTransform="matrix(17.807929,-14.596096,14.596096,17.807929,1.298556,19.872282)"><stop offset="0" style="stop-color:#00a1ff;stop-opacity:1"/><stop offset="1" style="stop-color:#00121d;stop-opacity:1"/></linearGradient><linearGradient id="_Linear4" x1="0" y1="0" x2="1" y2="0" gradientUnits="userSpaceOnUse" gradientTransform="matrix(3.063767,17.895325,-17.895325,3.063767,11.741961,7.382918)"><stop offset="0" style="stop-color:#00a1ff;stop-opacity:1"/><stop offset="1" style="stop-color:#00121d;stop-opacity:1"/></linearGradient><linearGradient id="_Linear5" x1="0" y1="0" x2="1" y2="0" gradientUnits="userSpaceOnUse" gradientTransform="matrix(-11.938073,14.963839,-14.963839,-11.938073,17.809054,12.801147)"><stop offset="0" style="stop-color:#00a1ff;stop-opacity:1"/><stop offset="1" style="stop-color:#00121d;stop-opacity:1"/></linearGradient><linearGradient id="_Linear6" x1="0" y1="0" x2="1" y2="0" gradientUnits="userSpaceOnUse" gradientTransform="matrix(3.975742,1.414592,-1.414592,3.975742,58.429536,15.204525)"><stop offset="0" style="stop-color:#00a1ff;stop-opacity:1"/><stop offset="1" style="stop-color:#00121d;stop-opacity:1"/></linearGradient></defs></svg>