<?xml version="1.0" encoding="UTF-8" standalone="no"?><!DOCTYPE svg PUBLIC "-//W3C//DTD SVG 1.1//EN" "http://www.w3.org/Graphics/SVG/1.1/DTD/svg11.dtd"><svg width="100%" height="100%" viewBox="0 0 20 21" version="1.1" xmlns="http://www.w3.org/2000/svg" xmlns:xlink="http://www.w3.org/1999/xlink" xml:space="preserve" xmlns:serif="http://www.serif.com/" style="fill-rule:evenodd;clip-rule:evenodd;stroke-linejoin:round;stroke-miterlimit:2;"><g id="light-logo"><path d="M6.053,5.774l-2.914,2.094l-1.84,-2.561l7.387,-5.307l-2.633,5.774Z" style="fill:url(#_Linear1);"/><path d="M-0,19.048l8.686,-19.048l2.521,2.072l-4.871,10.682l-6.336,6.295Z" style="fill:url(#_Linear2);"/><path d="M-0,19.048l11.742,-11.665l-0.332,4.775l-8.78,8.723l-2.631,-1.832Z" style="fill:url(#_Linear3);"/><path d="M11.742,7.383l3.064,1.401l-0.506,7.287l-3.389,3.281l0.831,-11.97Z" style="fill:url(#_Linear4);"/><path d="M10.911,19.353l6.766,-6.551l2.194,2.266l-5.898,5.71l-3.062,-1.425Z" style="fill:url(#_Linear5);"/></g><defs><linearGradient id="_Linear1" x1="0" y1="0" x2="1" y2="0" gradientUnits="userSpaceOnUse" gradientTransform="matrix(17.375452,-5.276185,5.276185,17.375452,1.298556,5.276185)"><stop offset="0" style="stop-color:#00a1ff;stop-opacity:1"/><stop offset="1" style="stop-color:#00649e;stop-opacity:1"/></linearGradient><linearGradient id="_Linear2" x1="0" y1="0" x2="1" y2="0" gradientUnits="userSpaceOnUse" gradientTransform="matrix(-8.067558,27.224389,-27.224389,-8.067558,8.685654,0)"><stop offset="0" style="stop-color:#00a1ff;stop-opacity:1"/><stop offset="1" style="stop-color:#00649e;stop-opacity:1"/></linearGradient><linearGradient id="_Linear3" x1="0" y1="0" x2="1" y2="0" gradientUnits="userSpaceOnUse" gradientTransform="matrix(17.807929,-14.596096,14.596096,17.807929,1.298556,19.872282)"><stop offset="0" style="stop-color:#00a1ff;stop-opacity:1"/><stop offset="1" style="stop-color:#00649e;stop-opacity:1"/></linearGradient><linearGradient id="_Linear4" x1="0" y1="0" x2="1" y2="0" gradientUnits="userSpaceOnUse" gradientTransform="matrix(3.063767,17.895325,-17.895325,3.063767,11.741961,7.382918)"><stop offset="0" style="stop-color:#00a1ff;stop-opacity:1"/><stop offset="1" style="stop-color:#00649e;stop-opacity:1"/></linearGradient><linearGradient id="_Linear5" x1="0" y1="0" x2="1" y2="0" gradientUnits="userSpaceOnUse" gradientTransform="matrix(-11.938073,14.963839,-14.963839,-11.938073,17.809054,12.801147)"><stop offset="0" style="stop-color:#00a1ff;stop-opacity:1"/><stop offset="1" style="stop-color:#00649e;stop-opacity:1"/></linearGradient></defs></svg>